<svg 
 xmlns="http://www.w3.org/2000/svg"
 xmlns:xlink="http://www.w3.org/1999/xlink"
 width="513px" height="512px">
<path fill-rule="evenodd"  fill="rgb(20, 71, 230)"
 d="M84.911,0.000 L429.089,0.000 C475.432,0.000 512.1000,37.568 512.1000,83.911 L512.1000,428.089 C512.1000,474.432 475.432,511.1000 429.089,511.1000 L84.911,511.1000 C38.568,511.1000 1.000,474.432 1.000,428.089 L1.000,83.911 C1.000,37.568 38.568,0.000 84.911,0.000 Z"/>
<path fill-rule="evenodd"  fill="rgb(255, 255, 255)"
 d="M447.263,256.242 C421.875,342.251 316.351,411.975 211.570,411.975 C129.379,411.975 72.074,369.069 63.433,309.059 L0.526,309.059 L0.526,300.365 L244.792,300.365 L268.125,211.490 L212.111,211.490 L201.839,250.614 L69.614,250.614 C74.202,237.059 80.775,223.947 88.1000,211.490 L0.526,211.490 L0.526,202.795 L214.393,202.795 L270.408,202.795 L283.469,153.045 L145.936,153.045 C190.202,120.826 246.959,100.509 303.510,100.509 C408.291,100.509 472.652,170.233 447.263,256.242 ZM186.495,309.059 L173.433,358.810 L326.929,358.810 L341.120,309.059 L186.495,309.059 Z"/>
</svg>